<?xml version="1.0" standalone="no"?>
<svg xmlns:xlink="http://www.w3.org/1999/xlink" id="wave" style="transform:rotate(180deg); transition: 0.3s" viewBox="0 0 1440 490" version="1.1" xmlns="http://www.w3.org/2000/svg"><defs><linearGradient id="sw-gradient-0" x1="0" x2="0" y1="1" y2="0"><stop stop-color="rgba(243, 106, 62, 1)" offset="0%"/><stop stop-color="rgba(255, 179, 11, 1)" offset="100%"/></linearGradient></defs><path style="transform:translate(0, 0px); opacity:1" fill="url(#sw-gradient-0)" d="M0,343L80,318.5C160,294,320,245,480,220.5C640,196,800,196,960,228.7C1120,261,1280,327,1440,294C1600,261,1760,131,1920,138.8C2080,147,2240,294,2400,294C2560,294,2720,147,2880,81.7C3040,16,3200,33,3360,98C3520,163,3680,278,3840,326.7C4000,376,4160,359,4320,294C4480,229,4640,114,4800,73.5C4960,33,5120,65,5280,114.3C5440,163,5600,229,5760,212.3C5920,196,6080,98,6240,114.3C6400,131,6560,261,6720,334.8C6880,408,7040,425,7200,424.7C7360,425,7520,408,7680,383.8C7840,359,8000,327,8160,277.7C8320,229,8480,163,8640,171.5C8800,180,8960,261,9120,310.3C9280,359,9440,376,9600,334.8C9760,294,9920,196,10080,130.7C10240,65,10400,33,10560,65.3C10720,98,10880,196,11040,204.2C11200,212,11360,131,11440,89.8L11520,49L11520,490L11440,490C11360,490,11200,490,11040,490C10880,490,10720,490,10560,490C10400,490,10240,490,10080,490C9920,490,9760,490,9600,490C9440,490,9280,490,9120,490C8960,490,8800,490,8640,490C8480,490,8320,490,8160,490C8000,490,7840,490,7680,490C7520,490,7360,490,7200,490C7040,490,6880,490,6720,490C6560,490,6400,490,6240,490C6080,490,5920,490,5760,490C5600,490,5440,490,5280,490C5120,490,4960,490,4800,490C4640,490,4480,490,4320,490C4160,490,4000,490,3840,490C3680,490,3520,490,3360,490C3200,490,3040,490,2880,490C2720,490,2560,490,2400,490C2240,490,2080,490,1920,490C1760,490,1600,490,1440,490C1280,490,1120,490,960,490C800,490,640,490,480,490C320,490,160,490,80,490L0,490Z"/></svg>